<svg version="1.1" viewBox="0.0 0.0 626.8582677165355 109.5249343832021" fill="none" stroke="none" stroke-linecap="square" stroke-miterlimit="10" xmlns:xlink="http://www.w3.org/1999/xlink" xmlns="http://www.w3.org/2000/svg"><clipPath id="p.0"><path d="m0 0l626.8583 0l0 109.52493l-626.8583 0l0 -109.52493z" clip-rule="nonzero"/></clipPath><g clip-path="url(#p.0)"><path fill="#000000" fill-opacity="0.0" d="m0 0l626.8583 0l0 109.52493l-626.8583 0z" fill-rule="evenodd"/><g filter="url(#shadowFilter-p.1)"><use xlink:href="#p.1" transform="matrix(1.0 0.0 0.0 1.0 0.0 2.0)"/></g><defs><filter id="shadowFilter-p.1" filterUnits="userSpaceOnUse"><feGaussianBlur in="SourceAlpha" stdDeviation="2.0" result="blur"/><feComponentTransfer in="blur" color-interpolation-filters="sRGB"><feFuncR type="linear" slope="0" intercept="0.0"/><feFuncG type="linear" slope="0" intercept="0.0"/><feFuncB type="linear" slope="0" intercept="0.0"/><feFuncA type="linear" slope="0.11" intercept="0"/></feComponentTransfer></filter></defs><g id="p.1"><path fill="#000000" fill-opacity="0.0" d="m0 0l624.50397 0l0 104.755905l-624.50397 0z" fill-rule="evenodd"/><path fill="#6d9eeb" d="m20.125 85.799995q-1.359375 0 -2.25 -0.875q-0.875 -0.890625 -0.875 -2.25l0 -56.234375q0 -1.359375 0.875 -2.234375q0.890625 -0.890625 2.25 -0.890625l37.515625 0q1.28125 0 2.203125 0.84375q0.921875 0.84375 0.921875 2.203125q0 1.203125 -0.921875 2.078125q-0.921875 0.875 -2.203125 0.875l-34.40625 0l0 22.078125l25.046875 0q1.359375 0 2.234375 0.890625q0.890625 0.875 0.890625 2.15625q0 1.28125 -0.890625 2.171875q-0.875 0.875 -2.234375 0.875l-25.046875 0l0 22.3125l34.40625 0q1.28125 0 2.203125 0.890625q0.921875 0.875 0.921875 2.0625q0 1.359375 -0.921875 2.203125q-0.921875 0.84375 -2.203125 0.84375l-37.515625 0zm70.71933 0.40625q-6.171875 0 -11.046875 -2.921875q-4.875 -2.921875 -7.71875 -7.953125q-2.84375 -5.046875 -2.84375 -11.375q0 -6.390625 2.921875 -11.421875q2.921875 -5.046875 7.953125 -7.96875q5.046875 -2.921875 11.375 -2.921875q6.3125 0 11.3125 2.921875q5.0 2.921875 7.921875 7.96875q2.921875 5.03125 3.0 11.421875l-2.484375 1.921875q0 5.765625 -2.6875 10.375q-2.671875 4.59375 -7.28125 7.28125q-4.59375 2.671875 -10.421875 2.671875zm0.640625 -5.609375q4.640625 0 8.28125 -2.15625q3.640625 -2.15625 5.75 -5.953125q2.125 -3.8125 2.125 -8.53125q0 -4.796875 -2.125 -8.546875q-2.109375 -3.765625 -5.75 -5.96875q-3.640625 -2.203125 -8.28125 -2.203125q-4.5625 0 -8.25 2.203125q-3.671875 2.203125 -5.84375 5.96875q-2.15625 3.75 -2.15625 8.546875q0 4.71875 2.15625 8.53125q2.171875 3.796875 5.84375 5.953125q3.6875 2.15625 8.25 2.15625zm19.109375 5.203125q-1.359375 0 -2.234375 -0.84375q-0.875 -0.84375 -0.875 -2.203125l0 -13.671875l1.515625 -6.328125l4.71875 1.203125l0 18.796875q0 1.359375 -0.890625 2.203125q-0.875 0.84375 -2.234375 0.84375zm30.409943 0.40625q-4.71875 0 -9.359375 -1.59375q-4.640625 -1.609375 -7.53125 -4.8125q-0.875 -0.953125 -0.71875 -2.15625q0.171875 -1.203125 1.203125 -2.078125q1.125 -0.8125 2.3125 -0.640625q1.203125 0.15625 2.015625 1.03125q1.90625 2.25 5.0625 3.453125q3.171875 1.1875 7.015625 1.1875q5.921875 0 8.5625 -2.03125q2.640625 -2.046875 2.71875 -4.921875q0 -2.890625 -2.734375 -4.765625q-2.71875 -1.875 -8.953125 -2.921875q-8.078125 -1.28125 -11.84375 -4.46875q-3.75 -3.203125 -3.75 -7.609375q0 -4.078125 2.15625 -6.796875q2.15625 -2.71875 5.75 -4.078125q3.609375 -1.359375 7.921875 -1.359375q5.375 0 9.25 1.84375q3.875 1.828125 6.28125 4.953125q0.796875 1.046875 0.625 2.171875q-0.15625 1.109375 -1.265625 1.828125q-0.96875 0.5625 -2.203125 0.359375q-1.234375 -0.203125 -2.125 -1.15625q-2.0 -2.328125 -4.640625 -3.40625q-2.640625 -1.078125 -6.078125 -1.078125q-4.390625 0 -7.03125 1.796875q-2.640625 1.796875 -2.640625 4.53125q0 1.828125 1.0 3.1875q1.0 1.359375 3.4375 2.40625q2.4375 1.03125 6.84375 1.765625q6.0 0.953125 9.46875 2.84375q3.484375 1.875 4.96875 4.390625q1.484375 2.515625 1.484375 5.484375q0 3.75 -2.203125 6.59375q-2.203125 2.84375 -6.09375 4.453125q-3.875 1.59375 -8.90625 1.59375zm35.35434 18.640625q-0.640625 0 -1.4375 -0.328125q-2.71875 -1.203125 -1.515625 -3.84375l25.828125 -56.953125q1.203125 -2.5625 3.84375 -1.4375q2.71875 1.109375 1.515625 3.75l-25.90625 56.96875q-0.8125 1.84375 -2.328125 1.84375zm8.875 -20.40625q-1.1875 0.5625 -2.234375 0.203125q-1.046875 -0.359375 -1.671875 -1.5625l-17.84375 -36.96875q-0.5625 -1.1875 -0.171875 -2.21875q0.40625 -1.046875 1.609375 -1.609375q1.203125 -0.5625 2.234375 -0.203125q1.046875 0.359375 1.609375 1.5625l17.515625 36.953125q0.640625 1.203125 0.390625 2.25q-0.234375 1.03125 -1.4375 1.59375zm48.964966 1.359375q-2.0 0 -2.875 -2.0l-23.765625 -55.59375q-0.875 -2.25 -0.125 -3.5625q0.765625 -1.328125 2.6875 -1.328125q2.0 0 2.875 2.0l22.078125 52.796875l-1.75 0l22.0 -52.625q0.46875 -1.203125 1.1875 -1.6875q0.734375 -0.484375 1.921875 -0.484375q1.84375 0 2.484375 1.40625q0.640625 1.390625 -0.078125 3.15625l-23.84375 55.921875q-0.46875 1.125 -1.203125 1.5625q-0.71875 0.4375 -1.59375 0.4375zm55.686188 0.40625q-6.40625 0 -11.453125 -2.875q-5.03125 -2.890625 -7.921875 -7.921875q-2.875 -5.046875 -2.875 -11.453125q0 -6.46875 2.875 -11.515625q2.890625 -5.046875 7.921875 -7.921875q5.046875 -2.875 11.453125 -2.875q6.390625 0 11.390625 2.875q5.0 2.875 7.875 7.921875q2.890625 5.046875 2.96875 11.515625q0 6.40625 -2.921875 11.453125q-2.921875 5.03125 -7.921875 7.921875q-5.0 2.875 -11.390625 2.875zm0 -5.609375q4.640625 0 8.3125 -2.15625q3.6875 -2.15625 5.765625 -5.921875q2.078125 -3.765625 2.078125 -8.5625q0 -4.796875 -2.078125 -8.59375q-2.078125 -3.796875 -5.765625 -5.953125q-3.671875 -2.171875 -8.3125 -2.171875q-4.640625 0 -8.328125 2.171875q-3.671875 2.15625 -5.796875 5.953125q-2.125 3.796875 -2.125 8.59375q0 4.796875 2.125 8.5625q2.125 3.765625 5.796875 5.921875q3.6875 2.15625 8.328125 2.15625zm43.6756 5.203125q-3.203125 0 -5.71875 -1.75q-2.515625 -1.765625 -3.921875 -4.890625q-1.40625 -3.125 -1.40625 -7.203125l0 -45.59375q0 -1.359375 0.84375 -2.203125q0.84375 -0.84375 2.203125 -0.84375q1.359375 0 2.203125 0.84375q0.84375 0.84375 0.84375 2.203125l0 45.59375q0 3.4375 1.390625 5.609375q1.40625 2.15625 3.5625 2.15625l2.0 0q1.203125 0 1.921875 0.84375q0.71875 0.828125 0.71875 2.1875q0 1.359375 -1.0 2.203125q-1.0 0.84375 -2.59375 0.84375l-1.046875 0zm32.153748 0.484375q-5.671875 0 -10.15625 -2.359375q-4.484375 -2.359375 -7.078125 -6.921875q-2.59375 -4.5625 -2.59375 -11.125l0 -20.796875q0 -1.28125 0.875 -2.15625q0.875 -0.890625 2.15625 -0.890625q1.359375 0 2.234375 0.890625q0.890625 0.875 0.890625 2.15625l0 20.796875q0 4.96875 1.875 8.171875q1.875 3.1875 5.109375 4.796875q3.25 1.59375 7.328125 1.59375q3.921875 0 7.078125 -1.515625q3.171875 -1.53125 5.0 -4.171875q1.84375 -2.640625 1.84375 -6.0l4.40625 0q-0.25 5.046875 -2.765625 9.015625q-2.515625 3.953125 -6.765625 6.234375q-4.234375 2.28125 -9.4375 2.28125zm17.609375 -0.484375q-1.359375 0 -2.203125 -0.84375q-0.84375 -0.84375 -0.84375 -2.28125l0 -37.59375q0 -1.359375 0.84375 -2.203125q0.84375 -0.84375 2.203125 -0.84375q1.359375 0 2.234375 0.84375q0.875 0.84375 0.875 2.203125l0 37.59375q0 1.4375 -0.875 2.28125q-0.875 0.84375 -2.234375 0.84375zm55.034943 0q-1.359375 0 -2.25 -0.875q-0.875 -0.890625 -0.875 -2.171875l0 -20.796875q0 -4.953125 -1.875 -8.15625q-1.875 -3.203125 -5.125 -4.796875q-3.234375 -1.609375 -7.3125 -1.609375q-3.921875 0 -7.078125 1.53125q-3.15625 1.515625 -5.0 4.15625q-1.84375 2.640625 -1.84375 6.0l-4.40625 0q0.171875 -5.046875 2.71875 -9.0q2.5625 -3.96875 6.796875 -6.234375q4.25 -2.28125 9.453125 -2.28125q5.671875 0 10.15625 2.359375q4.484375 2.359375 7.078125 6.921875q2.609375 4.546875 2.609375 11.109375l0 20.796875q0 1.28125 -0.890625 2.171875q-0.875 0.875 -2.15625 0.875zm-34.40625 0q-1.4375 0 -2.28125 -0.84375q-0.828125 -0.84375 -0.828125 -2.203125l0 -37.59375q0 -1.4375 0.828125 -2.28125q0.84375 -0.84375 2.28125 -0.84375q1.375 0 2.203125 0.84375q0.84375 0.84375 0.84375 2.28125l0 37.59375q0 1.359375 -0.84375 2.203125q-0.828125 0.84375 -2.203125 0.84375zm68.15994 0q-4.234375 0 -7.5625 -2.0q-3.3125 -2.0 -5.234375 -5.46875q-1.921875 -3.484375 -1.921875 -7.96875l0 -39.125q0 -1.359375 0.84375 -2.234375q0.84375 -0.890625 2.203125 -0.890625q1.359375 0 2.234375 0.890625q0.890625 0.875 0.890625 2.234375l0 39.125q0 4.078125 2.390625 6.6875q2.40625 2.59375 6.15625 2.59375l2.171875 0q1.28125 0 2.078125 0.875q0.796875 0.875 0.796875 2.234375q0 1.359375 -0.96875 2.203125q-0.953125 0.84375 -2.390625 0.84375l-1.6875 0zm-19.90625 -36.796875q-1.203125 0 -2.015625 -0.75q-0.796875 -0.765625 -0.796875 -1.890625q0 -1.203125 0.796875 -1.953125q0.8125 -0.765625 2.015625 -0.765625l20.390625 0q1.203125 0 2.0 0.765625q0.796875 0.75 0.796875 1.953125q0 1.125 -0.796875 1.890625q-0.796875 0.75 -2.0 0.75l-20.390625 0zm54.8006 37.203125q-6.484375 0 -11.484375 -2.84375q-5.0 -2.84375 -7.84375 -7.875q-2.84375 -5.046875 -2.84375 -11.53125q0 -6.5625 2.671875 -11.5625q2.6875 -5.0 7.40625 -7.875q4.734375 -2.875 10.890625 -2.875q6.078125 0 10.59375 2.765625q4.515625 2.75 7.0 7.640625q2.484375 4.875 2.484375 11.109375q0 1.28125 -0.8125 2.046875q-0.796875 0.75 -2.0625 0.75l-34.0 0l0 -5.109375l34.640625 0l-3.453125 2.46875q0.078125 -4.640625 -1.6875 -8.3125q-1.75 -3.6875 -5.0 -5.765625q-3.234375 -2.078125 -7.703125 -2.078125q-4.5625 0 -8.0 2.171875q-3.4375 2.15625 -5.328125 5.953125q-1.875 3.796875 -1.875 8.671875q0 4.890625 2.109375 8.65625q2.125 3.75 5.796875 5.90625q3.6875 2.15625 8.5 2.15625q2.875 0 5.796875 -1.0q2.921875 -1.0 4.671875 -2.515625q0.890625 -0.71875 2.0 -0.75q1.125 -0.046875 1.921875 0.59375q1.046875 0.953125 1.078125 2.078125q0.046875 1.125 -0.921875 1.921875q-2.640625 2.234375 -6.71875 3.71875q-4.078125 1.484375 -7.828125 1.484375zm49.119934 0q-6.484375 0 -11.484375 -2.84375q-5.0 -2.84375 -7.84375 -7.875q-2.84375 -5.046875 -2.84375 -11.53125q0 -6.5625 2.671875 -11.5625q2.6875 -5.0 7.40625 -7.875q4.734375 -2.875 10.890625 -2.875q6.078125 0 10.59375 2.765625q4.515625 2.75 7.0 7.640625q2.484375 4.875 2.484375 11.109375q0 1.28125 -0.8125 2.046875q-0.796875 0.75 -2.0625 0.75l-34.0 0l0 -5.109375l34.640625 0l-3.453125 2.46875q0.078125 -4.640625 -1.6875 -8.3125q-1.75 -3.6875 -5.0 -5.765625q-3.234375 -2.078125 -7.703125 -2.078125q-4.5625 0 -8.0 2.171875q-3.4375 2.15625 -5.328125 5.953125q-1.875 3.796875 -1.875 8.671875q0 4.890625 2.109375 8.65625q2.125 3.75 5.796875 5.90625q3.6875 2.15625 8.5 2.15625q2.875 0 5.796875 -1.0q2.921875 -1.0 4.671875 -2.515625q0.890625 -0.71875 2.0 -0.75q1.125 -0.046875 1.921875 0.59375q1.046875 0.953125 1.078125 2.078125q0.046875 1.125 -0.921875 1.921875q-2.640625 2.234375 -6.71875 3.71875q-4.078125 1.484375 -7.828125 1.484375zm31.838684 -27.359375q0.234375 -4.96875 2.59375 -8.890625q2.359375 -3.921875 6.15625 -6.15625q3.796875 -2.234375 8.4375 -2.234375q3.6875 0 5.6875 1.046875q2.0 1.03125 1.515625 3.03125q-0.3125 1.203125 -1.078125 1.609375q-0.765625 0.390625 -1.84375 0.3125q-1.078125 -0.078125 -2.4375 -0.171875q-4.484375 -0.390625 -7.96875 0.9375q-3.46875 1.3125 -5.515625 4.03125q-2.03125 2.71875 -2.03125 6.484375l-3.515625 0zm0.46875 26.953125q-1.4375 0 -2.234375 -0.796875q-0.796875 -0.796875 -0.796875 -2.25l0 -37.671875q0 -1.4375 0.796875 -2.234375q0.796875 -0.8125 2.234375 -0.8125q1.453125 0 2.25 0.8125q0.796875 0.796875 0.796875 2.234375l0 37.671875q0 1.453125 -0.796875 2.25q-0.796875 0.796875 -2.25 0.796875z" fill-rule="nonzero"/></g></g></svg>